<svg width="36" height="36" viewBox="0 0 36 36" fill="none" xmlns="http://www.w3.org/2000/svg">
<path d="M16.5665 3.75C17.1438 2.75 18.5872 2.75 19.1645 3.75L30.8559 24C31.4332 25 30.7116 26.25 29.5569 26.25H6.17416C5.01946 26.25 4.29778 25 4.87513 24L16.5665 3.75Z" fill="#FAFF00" stroke="#14140F"/>
<path d="M17.8655 19.66C17.6388 19.66 17.4455 19.5867 17.2855 19.44C17.1388 19.28 17.0655 19.0867 17.0655 18.86V10.3C17.0655 10.0733 17.1388 9.88667 17.2855 9.74C17.4455 9.58 17.6388 9.5 17.8655 9.5C18.0922 9.5 18.2788 9.58 18.4255 9.74C18.5855 9.88667 18.6655 10.0733 18.6655 10.3V18.86C18.6655 19.0867 18.5855 19.28 18.4255 19.44C18.2788 19.5867 18.0922 19.66 17.8655 19.66ZM17.8655 23.5C17.5722 23.5 17.3322 23.4067 17.1455 23.22C16.9588 23.0333 16.8655 22.7933 16.8655 22.5C16.8655 22.1933 16.9588 21.9533 17.1455 21.78C17.3322 21.5933 17.5722 21.5 17.8655 21.5C18.1722 21.5 18.4122 21.5933 18.5855 21.78C18.7722 21.9533 18.8655 22.1933 18.8655 22.5C18.8655 22.7933 18.7722 23.0333 18.5855 23.22C18.4122 23.4067 18.1722 23.5 17.8655 23.5Z" fill="#14140F"/>
</svg>
