<svg width="17" height="15" viewBox="0 0 17 15" fill="none" xmlns="http://www.w3.org/2000/svg">
<path d="M6.90704 1.54652C7.72596 0.151161 9.74338 0.151161 10.5623 1.54652L16.2913 11.3081C17.1204 12.7208 16.1017 14.4999 14.4637 14.4999H3.00565C1.36761 14.4999 0.34891 12.7208 1.17802 11.3081L6.90704 1.54652Z" fill="#FAFF00"/>
<path d="M8.30044 10.0942L8.30072 10.0939C8.19153 9.97672 8.13699 9.83373 8.13699 9.67071V4.4312C8.13699 4.26814 8.19168 4.12739 8.30375 4.01714M8.30044 10.0942L8.30375 4.01714M8.30044 10.0942L8.30691 10.1M8.30044 10.0942L8.30691 10.1M8.30375 4.01714C8.42221 3.9006 8.56778 3.84153 8.73476 3.84153C8.90038 3.84153 9.04253 3.89978 9.15338 4.01709C9.27265 4.12616 9.33253 4.26674 9.33253 4.4312V9.67071C9.33253 9.83645 9.27185 9.98042 9.15333 10.097C9.04138 10.2071 8.89911 10.2604 8.73476 10.2604M8.30375 4.01714L8.73476 10.2604M8.30691 10.1C8.42586 10.2072 8.5704 10.2604 8.73476 10.2604M8.30691 10.1L8.73476 10.2604M8.21664 12.4107C8.35381 12.5457 8.52945 12.6108 8.73476 12.6108C8.94605 12.6108 9.1236 12.547 9.25418 12.4094C9.3906 12.2746 9.45697 12.1014 9.45697 11.8987C9.45697 11.6902 9.39192 11.5152 9.25292 11.3867C9.12246 11.2501 8.94537 11.1866 8.73476 11.1866C8.5301 11.1866 8.35492 11.2514 8.21795 11.3854C8.07802 11.514 8.01255 11.6895 8.01255 11.8987C8.01255 12.1021 8.07934 12.2757 8.21664 12.4107Z" fill="#14140F" stroke="black" stroke-width="0.2"/>
</svg>
