<svg width="16" height="22" viewBox="0 0 16 22" fill="none" xmlns="http://www.w3.org/2000/svg">
<path d="M0.00328919 6.08112C0.00422896 6.09 0.00563862 6.09841 0.00704827 6.10729C0.00892781 6.11991 0.0103375 6.13253 0.0126869 6.14468C0.0145664 6.15449 0.0173857 6.16431 0.0197352 6.17412C0.0225545 6.18534 0.0249039 6.19609 0.0281931 6.20684C0.0310124 6.21619 0.0347715 6.22507 0.0380607 6.23442C0.0418197 6.24563 0.0455788 6.25638 0.0502777 6.2676C0.0535669 6.27555 0.0577958 6.28349 0.0615549 6.29144C0.0667236 6.30312 0.0718924 6.31434 0.0780009 6.32555C0.0817599 6.33257 0.0859889 6.33911 0.0902179 6.34612C0.0967962 6.3578 0.103375 6.36902 0.111363 6.38024C0.116062 6.38678 0.12123 6.39332 0.125929 6.39987C0.133917 6.41062 0.141435 6.42137 0.149893 6.43165C0.156472 6.43959 0.16399 6.44707 0.171038 6.45502C0.178086 6.46296 0.185135 6.47138 0.192653 6.47885L5.07945 11.3396C5.20773 11.4672 5.37642 11.5312 5.54464 11.5312C5.71286 11.5312 5.88155 11.4672 6.00982 11.3396C6.26685 11.0839 6.26685 10.6698 6.00982 10.4142L2.24605 6.67048H15.3497C15.7129 6.67048 16.0076 6.37743 16.0076 6.01615C16.0076 5.65487 15.7129 5.36182 15.3497 5.36182H2.24605L6.00982 1.61861C6.26685 1.36296 6.26685 0.948861 6.00982 0.693206C5.7528 0.437551 5.33648 0.437551 5.07945 0.693206L0.194062 5.55251C0.178086 5.56841 0.16305 5.58523 0.148484 5.60252C0.144255 5.60767 0.140496 5.61281 0.136736 5.61795C0.127809 5.62963 0.118411 5.64132 0.110423 5.65347C0.105254 5.66141 0.100555 5.66936 0.0958565 5.6773C0.089748 5.68759 0.0831696 5.69787 0.077531 5.70815C0.0728321 5.71656 0.069073 5.72544 0.0648441 5.73432C0.0596753 5.74461 0.0545066 5.75536 0.0502777 5.76611C0.0465186 5.77499 0.0436993 5.78387 0.0404101 5.79275C0.0361811 5.80396 0.0319522 5.81518 0.028663 5.82686C0.0258437 5.83574 0.0239641 5.84509 0.0216147 5.85397C0.0187954 5.86566 0.0155062 5.87687 0.0131568 5.88903C0.0112772 5.89978 0.00986758 5.91052 0.00845792 5.92127C0.00704827 5.93156 0.00516873 5.94184 0.00375908 5.95212C0.00187954 5.97315 0.000469885 5.99418 0.000469885 6.01522L0 6.01662C0 6.03812 0.000939769 6.05962 0.00328919 6.08112Z" fill="#F8FAF8"/>
<path d="M15.8971 16.163C15.9018 16.156 15.9061 16.1485 15.9103 16.1411C15.9169 16.1303 15.9239 16.1196 15.93 16.1084C15.9343 16.1004 15.938 16.092 15.9418 16.0836C15.9469 16.0724 15.9526 16.0616 15.9573 16.0504C15.9606 16.042 15.9634 16.0336 15.9667 16.0252C15.9709 16.0135 15.9756 16.0018 15.9789 15.9901C15.9817 15.9817 15.9836 15.9728 15.9855 15.9639C15.9888 15.9522 15.9921 15.9401 15.9944 15.9279C15.9963 15.9177 15.9977 15.9069 15.9991 15.8966C16.0005 15.8859 16.0029 15.8756 16.0038 15.8649C16.0057 15.8443 16.0066 15.8237 16.0071 15.8032C16.0071 15.8022 16.0071 15.8018 16.0071 15.8008C16.0071 15.7793 16.0062 15.7574 16.0038 15.7359C16.0029 15.7274 16.0015 15.7195 16 15.7111C15.9982 15.698 15.9968 15.6854 15.9939 15.6723C15.9921 15.6629 15.9892 15.6536 15.9869 15.6442C15.9841 15.633 15.9817 15.6213 15.978 15.6101C15.9751 15.6013 15.9719 15.5924 15.9686 15.584C15.9643 15.5723 15.9606 15.5611 15.9559 15.5498C15.9526 15.5424 15.9488 15.5349 15.9455 15.5274C15.9399 15.5153 15.9347 15.5036 15.9282 15.4919C15.9249 15.4853 15.9206 15.4793 15.9169 15.4732C15.9098 15.461 15.9028 15.4489 15.8948 15.4372C15.891 15.4316 15.8863 15.426 15.8826 15.4204C15.8741 15.4087 15.8657 15.397 15.8567 15.3858C15.852 15.3802 15.8473 15.3755 15.8426 15.3704C15.8332 15.3596 15.8243 15.3489 15.814 15.3386L10.9272 10.4779C10.6701 10.2222 10.2538 10.2222 9.9968 10.4779C9.73977 10.7335 9.73977 11.1476 9.9968 11.4033L13.7606 15.147H0.657839C0.294618 15.146 0 15.4391 0 15.8004C0 16.1616 0.294618 16.4547 0.657839 16.4547H13.7615L9.99774 20.1984C9.74071 20.454 9.74071 20.8681 9.99774 21.1238C10.126 21.2514 10.2947 21.3154 10.4629 21.3154C10.6311 21.3154 10.7998 21.2514 10.9281 21.1238L15.813 16.2649C15.8295 16.249 15.8445 16.2322 15.8591 16.2144C15.8624 16.2102 15.8652 16.206 15.8689 16.2018C15.8788 16.1892 15.8887 16.1766 15.8976 16.163H15.8971Z" fill="#F8FAF8"/>
</svg>
