<svg width="27" height="21" viewBox="0 0 27 21" fill="none" xmlns="http://www.w3.org/2000/svg">
<path d="M25.8896 1.65498C25.5592 1.50495 25.1688 1.64984 25.0179 1.97887L22.8828 6.63487C21.3425 2.70237 17.4904 0 13.1308 0C10.7095 0 8.34688 0.845016 6.47862 2.37941C4.63573 3.89278 3.35764 5.99971 2.88071 8.31228C2.80788 8.66609 3.03718 9.01194 3.39289 9.08486C3.74859 9.15777 4.0963 8.92922 4.16961 8.57542C4.58639 6.55495 5.70378 4.71302 7.31595 3.38894C8.94927 2.04757 11.0144 1.30912 13.1308 1.30912C17.0224 1.30912 20.4511 3.77219 21.7386 7.32752L16.7334 5.05701C16.4031 4.90698 16.0126 5.05187 15.8617 5.3809C15.7109 5.70947 15.8566 6.09785 16.1874 6.24788L22.4726 9.09934C22.4932 9.10869 22.5148 9.1171 22.5365 9.12458C22.5421 9.12645 22.5477 9.12785 22.5529 9.12972C22.5679 9.1344 22.5834 9.1386 22.5994 9.14234C22.606 9.14374 22.6126 9.14515 22.6192 9.14655C22.6347 9.14982 22.6502 9.15216 22.6657 9.15403C22.6713 9.15496 22.6774 9.1559 22.6831 9.15636C22.7042 9.15823 22.7254 9.15964 22.747 9.15964C22.7662 9.15964 22.7855 9.1587 22.8048 9.15683C22.8095 9.15683 22.8146 9.1559 22.8193 9.15543C22.8358 9.15356 22.8518 9.15122 22.8677 9.14842C22.8701 9.14795 22.8729 9.14795 22.8752 9.14748C22.8762 9.14748 22.8776 9.14702 22.8785 9.14655C22.8978 9.14281 22.9171 9.13767 22.9359 9.13206C22.941 9.13066 22.9462 9.12879 22.9509 9.12692C22.9645 9.12271 22.9777 9.11757 22.9908 9.11243C22.9974 9.11009 23.0035 9.10729 23.0101 9.10449C23.0265 9.09748 23.0425 9.09 23.0585 9.08158C23.0632 9.07878 23.0679 9.07598 23.0726 9.07317C23.0848 9.06616 23.0966 9.05915 23.1078 9.05167C23.1135 9.04793 23.1191 9.04419 23.1248 9.04045C23.137 9.03204 23.1483 9.02316 23.16 9.01428C23.1633 9.01194 23.1666 9.00914 23.1699 9.0068C23.1849 8.99465 23.199 8.98157 23.2131 8.96754C23.215 8.96567 23.2169 8.96381 23.2187 8.96194C23.2305 8.94978 23.2418 8.93716 23.253 8.92408C23.2559 8.92081 23.2582 8.91753 23.261 8.91473C23.2714 8.90164 23.2817 8.88809 23.2911 8.87407C23.2925 8.87173 23.2944 8.86986 23.2958 8.86753C23.3066 8.85163 23.3165 8.83481 23.3259 8.81798C23.3282 8.81424 23.3296 8.81004 23.332 8.80583C23.3367 8.79648 23.3418 8.78714 23.3465 8.77732L26.2147 2.5229C26.3656 2.19433 26.2199 1.80594 25.8891 1.65591L25.8896 1.65498Z" fill="white"/>
<path d="M22.8809 11.7291C22.5252 11.6562 22.1775 11.8847 22.1042 12.2385C21.6874 14.259 20.57 16.1009 18.9578 17.425C17.3245 18.7664 15.2594 19.5048 13.143 19.5048C9.25141 19.5048 5.82266 17.0417 4.53518 13.4864L9.54039 15.7569C9.87072 15.907 10.2612 15.7621 10.412 15.433C10.5629 15.1045 10.4172 14.7161 10.0864 14.566L3.7984 11.7132C3.79605 11.7123 3.7937 11.7113 3.79088 11.7104C3.77773 11.7048 3.76457 11.6996 3.75094 11.6945C3.74389 11.6917 3.73637 11.6889 3.72933 11.6865C3.71664 11.6823 3.70348 11.6791 3.69033 11.6753C3.68234 11.6735 3.67435 11.6711 3.66636 11.6693C3.65462 11.6664 3.6424 11.6646 3.63018 11.6627C3.62078 11.6613 3.61139 11.6594 3.60199 11.6585C3.59118 11.6571 3.58037 11.6566 3.56956 11.6562C3.55876 11.6552 3.54748 11.6543 3.53667 11.6543C3.52728 11.6543 3.51788 11.6543 3.50801 11.6548C3.49579 11.6548 3.48311 11.6552 3.47089 11.6566C3.46243 11.6576 3.45397 11.6585 3.44504 11.6594C3.43189 11.6608 3.41873 11.6627 3.40557 11.665C3.40276 11.6655 3.39994 11.6655 3.39712 11.6664C3.39101 11.6679 3.38537 11.6697 3.37926 11.6707C3.36705 11.6735 3.35483 11.6763 3.34308 11.6795C3.33321 11.6823 3.32335 11.6856 3.31348 11.6889C3.30361 11.6922 3.29374 11.6959 3.28388 11.6996C3.27307 11.7038 3.26226 11.7085 3.25192 11.7132C3.24346 11.7169 3.23454 11.7211 3.22608 11.7253C3.21527 11.7309 3.20493 11.7366 3.19507 11.7422C3.18661 11.7468 3.17862 11.752 3.17063 11.7571C3.16123 11.7632 3.15184 11.7697 3.14244 11.7763C3.13398 11.7824 3.12552 11.7884 3.11753 11.795C3.10955 11.8015 3.10156 11.8081 3.09404 11.8146C3.08558 11.8221 3.07712 11.8296 3.06867 11.8375C3.06209 11.8441 3.05504 11.8506 3.04893 11.8576C3.04095 11.866 3.03249 11.8749 3.02497 11.8842C3.01886 11.8913 3.01322 11.8987 3.00711 11.9062C3.00006 11.9156 2.99301 11.9244 2.98644 11.9343C2.98033 11.9427 2.97469 11.9515 2.96952 11.9604C2.96388 11.9693 2.95824 11.9782 2.95308 11.9875C2.94697 11.9983 2.94133 12.009 2.93616 12.0203C2.93334 12.0259 2.93005 12.031 2.9277 12.0366L0.0595271 18.291C-0.0913059 18.6196 0.0543551 19.008 0.385154 19.158C0.473492 19.1982 0.566532 19.2174 0.657689 19.2174C0.907198 19.2174 1.14637 19.0753 1.25679 18.8346L3.39195 14.1786C4.93223 18.1106 8.78434 20.813 13.1439 20.813C15.5653 20.813 17.9278 19.968 19.7961 18.4336C21.639 16.9202 22.9171 14.8133 23.394 12.5007C23.4668 12.1469 23.2375 11.8011 22.8818 11.7281L22.8809 11.7291Z" fill="white"/>
</svg>
