<?xml version="1.0" encoding="utf-8"?>
<!-- Generator: Adobe Illustrator 24.3.0, SVG Export Plug-In . SVG Version: 6.00 Build 0)  -->
<svg version="1.1" id="Layer_1" xmlns="http://www.w3.org/2000/svg" xmlns:xlink="http://www.w3.org/1999/xlink" x="0px" y="0px"
	 viewBox="0 0 1200 1200" style="enable-background:new 0 0 1200 1200;" xml:space="preserve">
<g>
	<path d="M55.0024529,793.9941406c0-336.0004883,242.9999847-610.0004883,545-610.0004883s545,274,545,610.0004883
		c0,130-250,220-545,220C306.0024414,1013.9941406,55.0024529,923.9941406,55.0024529,793.9941406z M900.0024414,928.9941406
		c-1-89-12-175-34-259c-5-16,8-31,24-31c12,0,22,8,25,18c21,83,32,169,35,257c90-32,145-75,145-120
		c0-284.0004883-183-515.0004883-422-552.0004883c48,46,89,96,123,148c9,14,1,39-21,39c-9,0-16-5-21-12c-43-67-97-128-163-183
		c-263,5-474,238-485,535.0004883h664c14,0,25,11,25,25s-11,25-25,25h-656c34.0000076,79,234,145,486,145
		C715.0024414,963.9941406,818.0024414,950.9941406,900.0024414,928.9941406z M575.0024414,403.9936523c0-14,11-25,25-25
		s25,11,25,25s-11,25-25,25S575.0024414,417.9936523,575.0024414,403.9936523z M575.0024414,533.9936523c0-14,11-25,25-25
		s25,11,25,25s-11,25-25,25S575.0024414,547.9936523,575.0024414,533.9936523z M575.0024414,663.9941406c0-14,11-25,25-25
		s25,11,25,25s-11,25-25,25S575.0024414,677.9941406,575.0024414,663.9941406z M821.0024414,533.9936523c0-14,11-25,25-25
		s25,11,25,25s-11,25-25,25S821.0024414,547.9936523,821.0024414,533.9936523z"/>
</g>
</svg>
