<svg width="22" height="17" viewBox="0 0 22 17" fill="none" xmlns="http://www.w3.org/2000/svg">
<path fill-rule="evenodd" clip-rule="evenodd" d="M6.49189 16.25C6.25723 16.25 6.06523 16.1753 5.91589 16.026C5.76656 15.8553 5.69189 15.6633 5.69189 15.45C5.69189 15.3647 5.70256 15.2793 5.72389 15.194C5.74523 15.1087 5.78789 15.034 5.85189 14.97L10.341 8.25113L5.85189 1.562L5.72389 1.306C5.70256 1.22067 5.69189 1.12467 5.69189 1.018C5.69189 0.826 5.76656 0.655333 5.91589 0.506C6.06523 0.335333 6.25723 0.25 6.49189 0.25C6.76923 0.25 7.00389 0.388666 7.19589 0.665999L11.2919 6.83968L15.3879 0.665999C15.5586 0.388666 15.7826 0.25 16.0599 0.25C16.3159 0.25 16.5186 0.335333 16.6679 0.506C16.8172 0.655333 16.8919 0.826 16.8919 1.018C16.8919 1.21 16.8279 1.39133 16.6999 1.562L12.2713 8.24942L16.7319 14.97C16.8386 15.1193 16.8919 15.2793 16.8919 15.45C16.8919 15.6633 16.8172 15.8553 16.6679 16.026C16.5186 16.1753 16.3159 16.25 16.0599 16.25C15.7826 16.25 15.5586 16.1113 15.3879 15.834L11.2919 9.66032L7.19589 15.834C7.00389 16.1113 6.76923 16.25 6.49189 16.25ZM0.630371 8.25C0.630371 7.90482 0.910193 7.625 1.25537 7.625L6.58398 7.625C6.92916 7.625 7.20898 7.90482 7.20898 8.25C7.20898 8.59518 6.92916 8.875 6.58398 8.875H1.25537C0.910193 8.875 0.630371 8.59518 0.630371 8.25ZM16.0168 7.625C15.6717 7.625 15.3918 7.90482 15.3918 8.25C15.3918 8.59518 15.6717 8.875 16.0168 8.875H21.3455C21.6906 8.875 21.9705 8.59518 21.9705 8.25C21.9705 7.90482 21.6906 7.625 21.3455 7.625L16.0168 7.625Z" fill="#F8FAF8"/>
</svg>
