<svg width="20" height="20" viewBox="0 0 20 20" fill="none" xmlns="http://www.w3.org/2000/svg">
<path d="M11.8871 1.48435C12.0624 1.16829 11.9205 0.749244 11.5658 0.680231C10.9627 0.562921 10.3397 0.501465 9.70236 0.501465C4.3439 0.501465 0 4.84536 0 10.2038C0 15.5623 4.3439 19.9062 9.70236 19.9062C15.0608 19.9062 19.4047 15.5623 19.4047 10.2038C19.4047 9.6472 19.3579 9.10153 19.2678 8.57053C19.2074 8.2142 18.7921 8.06211 18.4719 8.22973C18.2554 8.34307 18.1273 8.58254 18.1664 8.8238C18.2391 9.27307 18.2769 9.73404 18.2769 10.2038C18.2769 14.9394 14.4379 18.7783 9.70236 18.7783C4.9668 18.7783 1.12787 14.9394 1.12787 10.2038C1.12787 5.46827 4.9668 1.62934 9.70236 1.62934C10.2434 1.62934 10.7726 1.67944 11.2858 1.77525C11.5261 1.82012 11.7686 1.69811 11.8871 1.48435Z" fill="#F8FAF8"/>
<circle cx="16.1932" cy="3.86745" r="1.62484" fill="#F8FAF8"/>
</svg>
