<?xml version="1.0" encoding="utf-8"?>
<!-- Generator: Adobe Illustrator 24.3.0, SVG Export Plug-In . SVG Version: 6.00 Build 0)  -->
<svg version="1.1" id="Layer_1" xmlns="http://www.w3.org/2000/svg" xmlns:xlink="http://www.w3.org/1999/xlink" x="0px" y="0px"
	 viewBox="0 0 1200 1200" style="enable-background:new 0 0 1200 1200;" xml:space="preserve">
<g>
	<path d="M55.0024529,629.9941406c0-318.0004883,272-576.0004883,601-576.0004883c183,0,365,81,483,215c4,5,6,10,6,17
		c0,14-11,25-25,25c-7,0-14-3-18-9c-111-125-276-198-446-198c-302,0-551,236-551,526.0004883c0,261,202,464,440,464
		c209,0,379-159,379-354c0-169.0004883-125-294.0004883-268-294.0004883c-114,0-211,78-211,191.0004883c0,14-11,25-25,25
		s-25-11-25-25c0-143.0004883,123-241.0004883,261-241.0004883c171,0,318,148,318,344.0004883c0,223-194,404-429,404
		C279.0024414,1143.9941406,55.0024529,917.9941406,55.0024529,629.9941406z"/>
</g>
</svg>
