<svg width="10" height="20" viewBox="0 0 10 20" fill="none" xmlns="http://www.w3.org/2000/svg">
<path d="M9.33089 20H0.667737C0.478659 20 0.299219 19.9183 0.177145 19.7772C0.0550705 19.6362 0.00275356 19.449 0.0344195 19.2666L1.86003 8.69852C0.687929 7.77204 0 6.37805 0 4.89289C0 2.19473 2.24277 0 5 0C7.75723 0 10 2.19473 10 4.89244C10 6.37805 9.31207 7.77159 8.13997 8.69807L9.96558 19.2662C9.99725 19.4485 9.94493 19.6353 9.82285 19.7768C9.70078 19.9183 9.52134 19.9995 9.33226 19.9995L9.33089 20ZM1.42772 18.7425H8.57045L6.8224 8.62083C6.73704 8.36305 6.8302 8.07114 7.0693 7.90991L7.07526 7.90587C7.07848 7.90362 7.08215 7.90138 7.08536 7.89913C8.10555 7.21875 8.71409 6.09602 8.71409 4.89289C8.71409 2.88813 7.04773 1.25747 4.99908 1.25747C2.95044 1.25747 1.28407 2.88813 1.28407 4.89244C1.28407 6.09557 1.89261 7.2183 2.91234 7.89868C2.91602 7.90093 2.91923 7.90317 2.9229 7.90542L2.92887 7.90946C3.16843 8.07069 3.26113 8.36305 3.17577 8.62038L1.42772 18.7421V18.7425Z" fill="white"/>
</svg>
