<svg width="16" height="21" viewBox="0 0 16 21" fill="none" xmlns="http://www.w3.org/2000/svg">
<path d="M0.00328919 5.57965C0.00422896 5.58853 0.00563862 5.59695 0.00704827 5.60583C0.00892781 5.61844 0.0103375 5.63106 0.0126869 5.64322C0.0145664 5.65303 0.0173857 5.66285 0.0197352 5.67266C0.0225545 5.68388 0.0249039 5.69463 0.0281931 5.70538C0.0310124 5.71472 0.0347715 5.7236 0.0380607 5.73295C0.0418197 5.74417 0.0455788 5.75492 0.0502777 5.76614C0.0535669 5.77408 0.0577958 5.78203 0.0615549 5.78997C0.0667236 5.80166 0.0718924 5.81287 0.0780009 5.82409C0.0817599 5.8311 0.0859889 5.83764 0.0902179 5.84465C0.0967962 5.85634 0.103375 5.86756 0.111363 5.87877C0.116062 5.88532 0.12123 5.89186 0.125929 5.8984C0.133917 5.90915 0.141435 5.9199 0.149893 5.93018C0.156472 5.93813 0.16399 5.94561 0.171038 5.95355C0.178086 5.9615 0.185135 5.96991 0.192653 5.97739L5.07945 10.8381C5.20773 10.9657 5.37642 11.0297 5.54464 11.0297C5.71286 11.0297 5.88155 10.9657 6.00982 10.8381C6.26685 10.5824 6.26685 10.1684 6.00982 9.91269L2.24605 6.16901H15.3497C15.7129 6.16901 16.0076 5.87597 16.0076 5.51469C16.0076 5.15341 15.7129 4.86036 15.3497 4.86036H2.24605L6.00982 1.11715C6.26685 0.861491 6.26685 0.447396 6.00982 0.191741C5.7528 -0.0639137 5.33648 -0.0639137 5.07945 0.191741L0.194062 5.05105C0.178086 5.06694 0.16305 5.08377 0.148484 5.10106C0.144255 5.1062 0.140496 5.11134 0.136736 5.11648C0.127809 5.12817 0.118411 5.13985 0.110423 5.152C0.105254 5.15995 0.100555 5.16789 0.0958565 5.17584C0.089748 5.18612 0.0831696 5.1964 0.077531 5.20669C0.0728321 5.2151 0.069073 5.22398 0.0648441 5.23286C0.0596754 5.24314 0.0545066 5.25389 0.0502777 5.26464C0.0465186 5.27352 0.0436993 5.2824 0.0404101 5.29128C0.0361811 5.3025 0.0319522 5.31372 0.028663 5.3254C0.0258437 5.33428 0.0239641 5.34363 0.0216147 5.35251C0.0187954 5.36419 0.0155062 5.37541 0.0131568 5.38756C0.0112772 5.39831 0.00986758 5.40906 0.00845792 5.41981C0.00704827 5.43009 0.00516873 5.44037 0.00375908 5.45066C0.00187954 5.47169 0.000469885 5.49272 0.000469885 5.51375C0 5.51422 0 5.51469 0 5.51515C0 5.53665 0.000939769 5.55815 0.00328919 5.57965Z" fill="white"/>
<path d="M15.8971 15.6621C15.9018 15.655 15.9061 15.6476 15.9103 15.6401C15.9169 15.6293 15.9239 15.6186 15.93 15.6074C15.9343 15.5994 15.938 15.591 15.9418 15.5826C15.9469 15.5714 15.9526 15.5606 15.9573 15.5494C15.9606 15.541 15.9634 15.5326 15.9667 15.5242C15.9709 15.5125 15.9756 15.5008 15.9789 15.4891C15.9817 15.4807 15.9836 15.4718 15.9855 15.463C15.9888 15.4513 15.9921 15.4391 15.9944 15.427C15.9963 15.4167 15.9977 15.4059 15.9991 15.3957C16.0005 15.3849 16.0029 15.3746 16.0038 15.3639C16.0057 15.3433 16.0066 15.3227 16.0071 15.3022C16.0071 15.3012 16.0071 15.3008 16.0071 15.2998C16.0071 15.2783 16.0062 15.2564 16.0038 15.2349C16.0029 15.2265 16.0015 15.2185 16 15.2101C15.9982 15.197 15.9968 15.1844 15.9939 15.1713C15.9921 15.162 15.9892 15.1526 15.9869 15.1433C15.9841 15.1321 15.9817 15.1204 15.978 15.1092C15.9751 15.1003 15.9719 15.0914 15.9686 15.083C15.9643 15.0713 15.9606 15.0601 15.9559 15.0489C15.9526 15.0414 15.9488 15.0339 15.9455 15.0264C15.9399 15.0143 15.9347 15.0026 15.9282 14.9909C15.9249 14.9844 15.9206 14.9783 15.9169 14.9722C15.9098 14.9601 15.9028 14.9479 15.8948 14.9362C15.891 14.9306 15.8863 14.925 15.8826 14.9194C15.8741 14.9077 15.8657 14.896 15.8567 14.8848C15.852 14.8792 15.8473 14.8745 15.8426 14.8694C15.8332 14.8586 15.8243 14.8479 15.814 14.8376L10.9272 9.9769C10.6701 9.72124 10.2538 9.72124 9.9968 9.9769C9.73977 10.2326 9.73977 10.6466 9.9968 10.9023L13.7606 14.646H0.657839C0.294618 14.645 0 14.9381 0 15.2994C0 15.6607 0.294618 15.9537 0.657839 15.9537H13.7615L9.99774 19.6974C9.74071 19.953 9.74071 20.3671 9.99774 20.6228C10.126 20.7504 10.2947 20.8144 10.4629 20.8144C10.6311 20.8144 10.7998 20.7504 10.9281 20.6228L15.813 15.7639C15.8295 15.7481 15.8445 15.7312 15.8591 15.7135C15.8624 15.7093 15.8652 15.7051 15.8689 15.7009C15.8788 15.6882 15.8887 15.6756 15.8976 15.6621H15.8971Z" fill="white"/>
</svg>
