<svg width="21" height="21" viewBox="0 0 21 21" fill="none" xmlns="http://www.w3.org/2000/svg">
<path d="M10.4625 20.8142C10.0992 20.8142 9.80463 20.5211 9.80463 20.1599V15.2837C9.80463 14.9224 10.0992 14.6294 10.4625 14.6294C10.8257 14.6294 11.1203 14.9224 11.1203 15.2837V20.1599C11.1203 20.5211 10.8257 20.8142 10.4625 20.8142Z" fill="white"/>
<path d="M10.4625 6.18479C10.0992 6.18479 9.80463 5.89174 9.80463 5.53046V0.654326C9.80463 0.293045 10.0992 0 10.4625 0C10.8257 0 11.1203 0.293045 11.1203 0.654326V5.53046C11.1203 5.89174 10.8257 6.18479 10.4625 6.18479Z" fill="white"/>
<path d="M17.3956 17.9573C17.2274 17.9573 17.0587 17.8932 16.9304 17.7656L13.4636 14.3173C13.2066 14.0617 13.2066 13.6476 13.4636 13.3919C13.7206 13.1363 14.1369 13.1363 14.394 13.3919L17.8608 16.8402C18.1178 17.0959 18.1178 17.51 17.8608 17.7656C17.7325 17.8932 17.5638 17.9573 17.3956 17.9573Z" fill="white"/>
<path d="M6.9961 7.61303C6.82788 7.61303 6.6592 7.549 6.53092 7.4214L3.06411 3.9731C2.80708 3.71745 2.80708 3.30335 3.06411 3.0477C3.32113 2.79204 3.73745 2.79204 3.99448 3.0477L7.46129 6.496C7.71832 6.75165 7.71832 7.16575 7.46129 7.4214C7.33301 7.549 7.16432 7.61303 6.9961 7.61303Z" fill="white"/>
<path d="M20.2675 11.0611H15.3652C15.002 11.0611 14.7074 10.768 14.7074 10.4068C14.7074 10.0455 15.002 9.75244 15.3652 9.75244H20.2675C20.6308 9.75244 20.9254 10.0455 20.9254 10.4068C20.9254 10.768 20.6308 11.0611 20.2675 11.0611Z" fill="white"/>
<path d="M5.56014 11.0611H0.657839C0.294618 11.0611 0 10.768 0 10.4068C0 10.0455 0.294618 9.75244 0.657839 9.75244H5.56014C5.92336 9.75244 6.21798 10.0455 6.21798 10.4068C6.21798 10.768 5.92336 11.0611 5.56014 11.0611Z" fill="white"/>
<path d="M13.9293 7.61303C13.761 7.61303 13.5923 7.549 13.4641 7.4214C13.207 7.16575 13.207 6.75165 13.4641 6.496L16.9309 3.0477C17.1879 2.79204 17.6042 2.79204 17.8613 3.0477C18.1183 3.30335 18.1183 3.71745 17.8613 3.9731L14.3944 7.4214C14.2662 7.549 14.0975 7.61303 13.9293 7.61303Z" fill="white"/>
<path d="M3.5293 17.9573C3.36108 17.9573 3.19239 17.8932 3.06411 17.7656C2.80708 17.51 2.80708 17.0959 3.06411 16.8402L6.53092 13.3919C6.78795 13.1363 7.20426 13.1363 7.46129 13.3919C7.71832 13.6476 7.71832 14.0617 7.46129 14.3173L3.99448 17.7656C3.8662 17.8932 3.69751 17.9573 3.5293 17.9573Z" fill="white"/>
</svg>
