<?xml version="1.0" encoding="utf-8"?>
<!-- Generator: Adobe Illustrator 24.3.0, SVG Export Plug-In . SVG Version: 6.00 Build 0)  -->
<svg version="1.1" id="Layer_1" xmlns="http://www.w3.org/2000/svg" xmlns:xlink="http://www.w3.org/1999/xlink" x="0px" y="0px"
	 viewBox="0 0 1200 1200" style="enable-background:new 0 0 1200 1200;" xml:space="preserve">
<g>
	<path d="M55.0029297,988.9941406c0-14,11-25,25-25s25,11,25,25c0,73,45,105,105,105c36,0,75-8,118-24c-38-22-73-48-104-77
		c-5-5-8-11-8-18c0-14,11-25,25-25c7,0,13,2,18,7c39,35,82,66,129,88c243-116,543-416,659-658.0004883c-80-167-250-283-447-283
		c-273,0-495,222-495,495c0,64.0004883,13,126.0004883,35,183.0004883c7,16-5,35-23,35c-10,0-19-7-23-16
		c-25-61-39-131-39-202.0004883c0-301,245-545,545-545c202,0,378,110,472,272c15-42,23-82,23-117c0-60-31-105-105-105
		c-14,0-25-11-25-25s11-25,25-25c106,0,155,72,155,155c0,52-16,112-44,176c28,65,44,138,44,214
		c0,300.0004883-244,545.0004883-545,545.0004883c-76,0-148-16-214-44c-64,28-124,44-176,44
		C127.0029297,1143.9941406,55.0029297,1093.9941406,55.0029297,988.9941406z M1071.0029297,445.9936523
		c-126,233.0004883-390,497.0004883-623,624.0004883c47,15,99,24,152,24c273,0,495-222,495-495.0004883
		C1095.0029297,545.9936523,1087.0029297,493.9936523,1071.0029297,445.9936523z"/>
</g>
</svg>
