<?xml version="1.0" encoding="utf-8"?>
<!-- Generator: Adobe Illustrator 24.3.0, SVG Export Plug-In . SVG Version: 6.00 Build 0)  -->
<svg version="1.1" id="Layer_1" xmlns="http://www.w3.org/2000/svg" xmlns:xlink="http://www.w3.org/1999/xlink" x="0px" y="0px"
	 viewBox="0 0 1200 1200" style="enable-background:new 0 0 1200 1200;" xml:space="preserve">
<g>
	<path d="M500.0024414,1069.9941406l-73-230c-12-38-32-60-66-70l-232.9999847-71c-35.0000076-11-73-47-73-100.0004883
		c0-54,37.9999962-90,73-100l232.9999847-71c34-11,54-33,66-70l73-231c12-37,47-73,100-73s88,36,100,73l74,231c12,37,31,59,66,70
		l233,71c35,10,72,46,72,100c0,53.0004883-37,89.0004883-72,100.0004883l-233,71c-35,10-54,32-66,70l-74,230c-12,37-47,74-100,74
		S512.0024414,1106.9941406,500.0024414,1069.9941406z M652.0024414,1054.9941406l75-231c16-50,45-86,98-102l233-71
		c19-6,37-24,37-52.0004883c0-28-18-46-37-52l-233-71c-53-17-82-52-98-102l-75-232c-6-19-24-38-52-38s-46,19-52,38l-74,232
		c-16,50-45,85-98,102l-232.9999847,71c-19.0000076,6-38.0000076,24-38.0000076,52
		c0,28.0004883,19,46.0004883,38.0000076,52.0004883l232.9999847,71c53,16,82,52,98,102l74,231c6,19,24,39,52,39
		S646.0024414,1073.9941406,652.0024414,1054.9941406z"/>
</g>
</svg>
