<svg width="21" height="21" viewBox="0 0 21 21" fill="none" xmlns="http://www.w3.org/2000/svg">
<path d="M17.2761 4.94043H3.0924C1.91738 4.94043 0.964844 5.95075 0.964844 7.19705V16.2235C0.964844 17.4698 1.91738 18.4802 3.0924 18.4802H17.2761C18.4511 18.4802 19.4036 17.4698 19.4036 16.2235V7.19705C19.4036 5.95075 18.4511 4.94043 17.2761 4.94043Z" stroke="#14140F" stroke-width="1.25" stroke-linejoin="round"/>
<path d="M17.0704 4.9407V3.53031C17.0703 3.18439 16.9982 2.84276 16.8593 2.5298C16.7204 2.21683 16.5181 1.94024 16.2667 1.71976C16.0154 1.49928 15.7214 1.34035 15.4055 1.2543C15.0896 1.16826 14.7597 1.15722 14.4393 1.22198L2.76617 3.33521C2.25925 3.43767 1.80193 3.72456 1.47308 4.14639C1.14424 4.56822 0.964494 5.09854 0.964844 5.6459V7.94953" stroke="#14140F" stroke-width="1.25" stroke-linejoin="round"/>
<path d="M11.3886 13.9169C11.2299 13.9169 11.0946 13.8609 10.9826 13.7489C10.8706 13.6369 10.8146 13.5015 10.8146 13.3429C10.8146 13.1935 10.8752 13.0582 10.9966 12.9369L11.7946 12.1389C11.9439 11.9895 12.1212 11.8775 12.3266 11.8029C12.5319 11.7189 12.7466 11.6769 12.9706 11.6769C13.1946 11.6769 13.4046 11.7142 13.6006 11.7889C13.8059 11.8635 13.9832 11.9755 14.1326 12.1249L14.6506 12.6429C14.6972 12.6895 14.7532 12.7269 14.8186 12.7549C14.8932 12.7829 14.9679 12.7969 15.0426 12.7969C15.1172 12.7969 15.1872 12.7829 15.2526 12.7549C15.3272 12.7269 15.3879 12.6895 15.4346 12.6429L16.2186 11.8589C16.3399 11.7375 16.4752 11.6769 16.6246 11.6769C16.7832 11.6769 16.9186 11.7329 17.0306 11.8449C17.1426 11.9569 17.1986 12.0922 17.1986 12.2509C17.1986 12.4002 17.1379 12.5355 17.0166 12.6569L16.2186 13.4549C16.0692 13.6042 15.8919 13.7209 15.6866 13.8049C15.4812 13.8795 15.2666 13.9169 15.0426 13.9169C14.8186 13.9169 14.6039 13.8795 14.3986 13.8049C14.2026 13.7302 14.0299 13.6182 13.8806 13.4689L13.3626 12.9509C13.3159 12.9042 13.2552 12.8669 13.1806 12.8389C13.1152 12.8109 13.0452 12.7969 12.9706 12.7969C12.8959 12.7969 12.8212 12.8109 12.7466 12.8389C12.6812 12.8669 12.6252 12.9042 12.5786 12.9509L11.7946 13.7349C11.6732 13.8562 11.5379 13.9169 11.3886 13.9169Z" fill="#14140F"/>
</svg>
