<svg width="21" height="18" viewBox="0 0 21 18" fill="none" xmlns="http://www.w3.org/2000/svg">
<path d="M17.7312 4.3125H3.54747C2.37246 4.3125 1.41992 5.26504 1.41992 6.44005V14.9503C1.41992 16.1253 2.37246 17.0778 3.54747 17.0778H17.7312C18.9062 17.0778 19.8587 16.1253 19.8587 14.9503V6.44005C19.8587 5.26504 18.9062 4.3125 17.7312 4.3125Z" stroke="#F8FAF8" stroke-width="1.2" stroke-linejoin="round"/>
<path d="M17.5255 4.31278V2.98306C17.5254 2.65693 17.4533 2.33484 17.3144 2.03977C17.1755 1.74471 16.9731 1.48394 16.7218 1.27607C16.4705 1.0682 16.1764 0.91836 15.8606 0.837236C15.5447 0.756112 15.2148 0.745704 14.8944 0.806757L3.22125 2.79912C2.71433 2.89572 2.257 3.1662 1.92816 3.5639C1.59932 3.96161 1.41957 4.4616 1.41992 4.97764V7.14952" stroke="#F8FAF8" stroke-width="1.2" stroke-linejoin="round"/>
<path d="M11.5534 11.8464C11.3903 11.8464 11.2512 11.7888 11.1361 11.6737C11.0209 11.5586 10.9634 11.4195 10.9634 11.2564C10.9634 11.1029 11.0257 10.9638 11.1504 10.8391L11.9707 10.0188C12.1242 9.86532 12.3065 9.7502 12.5175 9.67346C12.7286 9.58712 12.9492 9.54395 13.1795 9.54395C13.4097 9.54395 13.6255 9.58232 13.827 9.65907C14.0381 9.73581 14.2203 9.85093 14.3738 10.0044L14.9063 10.5369C14.9542 10.5848 15.0118 10.6232 15.0789 10.652C15.1557 10.6808 15.2324 10.6952 15.3092 10.6952C15.3859 10.6952 15.4579 10.6808 15.525 10.652C15.6018 10.6232 15.6641 10.5848 15.7121 10.5369L16.518 9.73102C16.6427 9.6063 16.7818 9.54395 16.9353 9.54395C17.0983 9.54395 17.2375 9.60151 17.3526 9.71663C17.4677 9.83175 17.5253 9.97085 17.5253 10.1339C17.5253 10.2874 17.4629 10.4265 17.3382 10.5513L16.518 11.3715C16.3645 11.525 16.1822 11.6449 15.9711 11.7312C15.7601 11.808 15.5394 11.8464 15.3092 11.8464C15.0789 11.8464 14.8583 11.808 14.6472 11.7312C14.4458 11.6545 14.2683 11.5394 14.1148 11.3859L13.5824 10.8534C13.5344 10.8055 13.472 10.7671 13.3953 10.7383C13.3281 10.7095 13.2562 10.6952 13.1795 10.6952C13.1027 10.6952 13.026 10.7095 12.9492 10.7383C12.8821 10.7671 12.8245 10.8055 12.7765 10.8534L11.9707 11.6593C11.846 11.784 11.7069 11.8464 11.5534 11.8464Z" fill="#F8FAF8"/>
</svg>
