<?xml version="1.0" encoding="utf-8"?>
<!-- Generator: Adobe Illustrator 24.3.0, SVG Export Plug-In . SVG Version: 6.00 Build 0)  -->
<svg version="1.1" id="Layer_1" xmlns="http://www.w3.org/2000/svg" xmlns:xlink="http://www.w3.org/1999/xlink" x="0px" y="0px"
	 viewBox="0 0 1200 1200" style="enable-background:new 0 0 1200 1200;" xml:space="preserve">
<g>
	<path d="M39.9868279,793.9941406c0-344.0004883,248.9999847-625.0004883,560-625.0004883s560,281,560,625.0004883
		c0,144-260,235-560,235S39.9868279,937.9941406,39.9868279,793.9941406z M884.9868164,918.9941406c-2-84-13-166-34-245
		c-7-25,13-50,39-50c19,0,35,13,39,30c20,78,31,159,35,241c73-28,116-64,116-101c0-262.0004883-152-472.0004883-363-529.0004883
		c35,37,65,77,92,117c15,23,1,62-34,62c-14,0-27-7-34-18c-42-65-92-123-156-177c-250,8-447,222-464,505.0004883h649
		c22,0,40,18,40,40s-18,40-40,40h-633c53,63,230.9999847,115,463,115
		C709.9868164,948.9941406,806.9868164,937.9941406,884.9868164,918.9941406z M559.9868164,403.9936523c0-22,18-40,40-40
		s40,18,40,40s-18,40-40,40S559.9868164,425.9936523,559.9868164,403.9936523z M559.9868164,533.9936523c0-22,18-40,40-40
		s40,18,40,40s-18,40-40,40S559.9868164,555.9936523,559.9868164,533.9936523z M559.9868164,663.9941406c0-22,18-40,40-40
		s40,18,40,40s-18,40-40,40S559.9868164,685.9941406,559.9868164,663.9941406z M805.9868164,533.9936523c0-22,18-40,40-40
		s40,18,40,40s-18,40-40,40S805.9868164,555.9936523,805.9868164,533.9936523z"/>
</g>
</svg>
