<?xml version="1.0" encoding="utf-8"?>
<!-- Generator: Adobe Illustrator 24.3.0, SVG Export Plug-In . SVG Version: 6.00 Build 0)  -->
<svg version="1.1" id="Layer_1" xmlns="http://www.w3.org/2000/svg" xmlns:xlink="http://www.w3.org/1999/xlink" x="0px" y="0px"
	 viewBox="0 0 1200 1200" style="enable-background:new 0 0 1200 1200;" xml:space="preserve">
<g>
	<path d="M39.9868279,629.9941406c0-327.0004883,278-591.0004883,616-591.0004883c187,0,373,83,494,221c6,7,10,16,10,26
		c0,22-18,40-40,40c-12,0-22-5-30-14c-108-122-267-193-434-193c-295,0-536,229-536,511.0004883c0,254,195,449,425,449
		c201,0,364-152,364-339c0-161.0004883-118-279.0004883-253-279.0004883c-107,0-196,72-196,176.0004883c0,22-18,40-40,40
		s-40-18-40-40c0-152.0004883,130-256.0004883,276-256.0004883c179,0,333,155,333,359.0004883c0,232-201,419-444,419
		C269.9868164,1158.9941406,39.9868279,926.9941406,39.9868279,629.9941406z"/>
</g>
</svg>
