<?xml version="1.0" encoding="utf-8"?>
<!-- Generator: Adobe Illustrator 24.3.0, SVG Export Plug-In . SVG Version: 6.00 Build 0)  -->
<svg version="1.1" id="Layer_1" xmlns="http://www.w3.org/2000/svg" xmlns:xlink="http://www.w3.org/1999/xlink" x="0px" y="0px"
	 viewBox="0 0 1200 1200" style="enable-background:new 0 0 1200 1200;" xml:space="preserve">
<g>
	<path d="M40.0029297,988.9941406c0-22,18-40,40-40s40,18,40,40c0,64,36,90,90,90c25,0,53-4,82-12c-28-19-55-40-79-63
		c-7-7-12-18-12-29c0-22,18-40,40-40c11,0,20,4,28,11c39,33,78,61,120,83c237-115,527-406,642-642.0004883c-78-159-242-268-431-268
		c-265,0-480,215-480,480c0,62.0004883,12,122.0004883,34,178.0004883c10,25-8,55-37,55c-17,0-31-10-37-25
		c-26-63-40-135-40-208.0004883c0-309,251-560,560-560c195,0,367,100,468,252c8-29,12-57,12-82c0-54-26-90-90-90c-22,0-40-18-40-40
		s18-40,40-40c114,0,170,79,170,170c0,53-15,113-43,176c28,66,43,138,43,214c0,309.0004883-251,560.0004883-560,560.0004883
		c-76,0-149-15-214-43c-63,28-123,43-176,43C119.0029297,1158.9941406,40.0029297,1102.9941406,40.0029297,988.9941406z
		 M1066.0029297,484.9936523c-127,217.0004883-363,453.0004883-581,580.0004883c37,9,75,14,115,14c265,0,480-215,480-480.0004883
		C1080.0029297,559.9936523,1075.0029297,520.9936523,1066.0029297,484.9936523z"/>
</g>
</svg>
