<?xml version="1.0" encoding="utf-8"?>
<!-- Generator: Adobe Illustrator 24.3.0, SVG Export Plug-In . SVG Version: 6.00 Build 0)  -->
<svg version="1.1" id="Layer_1" xmlns="http://www.w3.org/2000/svg" xmlns:xlink="http://www.w3.org/1999/xlink" x="0px" y="0px"
	 viewBox="0 0 1200 1200" style="enable-background:new 0 0 1200 1200;" xml:space="preserve">
<g>
	<path d="M485.9868164,1074.9941406l-74-230c-11-34-27-52-56-61l-233-71c-43-13-83-56-83-114.0004883c0-58,39.9999962-101,83-114
		l233-71c29-9,45-27,56-61l74-230c15-46,57-84,114-84s99,38,114,84l74,230c11,34,27,52,56,61l233,71c43,13,83,56,83,114
		c0,58.0004883-40,101.0004883-83,114.0004883l-233,71c-29,9-45,27-56,61l-74,230c-15,46-57,84-114,84
		S500.9868164,1120.9941406,485.9868164,1074.9941406z M637.9868164,1050.9941406l74-232c17-53,50-93,108-111l233-71
		c15-5,27-19,27-38.0004883c0-19-12-33-27-38l-233-71c-58-18-91-58-108-111l-74-232c-5-15-19-28-38-28s-33,13-38,28l-74,232
		c-17,53-50,93-108,111l-232.9999847,71c-15,5-27.0000076,19-27.0000076,38
		c0,19.0004883,12.0000076,33.0004883,27.0000076,38.0004883l232.9999847,71c58,18,91,58,108,111l74,232c5,15,19,28,38,28
		S632.9868164,1065.9941406,637.9868164,1050.9941406z"/>
</g>
</svg>
