<svg width="84" height="46" viewBox="0 0 84 46" fill="none" xmlns="http://www.w3.org/2000/svg">
<rect x="0.5" y="1.5" width="63" height="23" rx="4.5" stroke="white"/>
<mask id="path-2-inside-1_1447_25" fill="white">
<path fill-rule="evenodd" clip-rule="evenodd" d="M72 17C69.2386 17 67 19.2386 67 22V24C67 26.7614 64.7614 29 62 29H5C2.23858 29 0 31.2386 0 34V41C0 43.7614 2.23858 46 5 46H72H79C81.7614 46 84 43.7614 84 41V34V22C84 19.2386 81.7614 17 79 17H72Z"/>
</mask>
<path d="M68 22C68 19.7909 69.7909 18 72 18V16C68.6863 16 66 18.6863 66 22H68ZM68 24V22H66V24H68ZM5 30H62V28H5V30ZM1 34C1 31.7909 2.79086 30 5 30V28C1.68629 28 -1 30.6863 -1 34H1ZM1 41V34H-1V41H1ZM5 45C2.79086 45 1 43.2091 1 41H-1C-1 44.3137 1.68629 47 5 47V45ZM72 45H5V47H72V45ZM79 45H72V47H79V45ZM83 41C83 43.2091 81.2091 45 79 45V47C82.3137 47 85 44.3137 85 41H83ZM83 34V41H85V34H83ZM83 22V34H85V22H83ZM79 18C81.2091 18 83 19.7909 83 22H85C85 18.6863 82.3137 16 79 16V18ZM72 18H79V16H72V18ZM66 24C66 26.2091 64.2091 28 62 28V30C65.3137 30 68 27.3137 68 24H66Z" fill="white" mask="url(#path-2-inside-1_1447_25)"/>
<path d="M67.5 6C67.5 3.51472 69.5147 1.5 72 1.5H79C81.4853 1.5 83.5 3.51472 83.5 6V10C83.5 12.4853 81.4853 14.5 79 14.5H72C69.5147 14.5 67.5 12.4853 67.5 10V6Z" stroke="#F8FAF8"/>
</svg>
