<svg width="84" height="45" viewBox="0 0 84 45" fill="none" xmlns="http://www.w3.org/2000/svg">
<mask id="path-1-inside-1_1388_1669" fill="white">
<path fill-rule="evenodd" clip-rule="evenodd" d="M0 21C0 18.2386 2.23858 16 5 16H25C27.7614 16 30 18.2386 30 21V22C30 24.7614 32.2386 27 35 27H42C44.7614 27 47 29.2386 47 32C47 33.6569 48.3431 35 50 35H57C59.7614 35 62 37.2386 62 40C62 42.7614 59.7614 45 57 45H42H30H25H5C2.23858 45 0 42.7614 0 40V21Z"/>
</mask>
<path d="M5 15C1.68629 15 -1 17.6863 -1 21H1C1 18.7909 2.79086 17 5 17V15ZM25 15H5V17H25V15ZM31 21C31 17.6863 28.3137 15 25 15V17C27.2091 17 29 18.7909 29 21H31ZM31 22V21H29V22H31ZM35 28H42V26H35V28ZM42 28C44.2091 28 46 29.7909 46 32H48C48 28.6863 45.3137 26 42 26V28ZM57 34H50V36H57V34ZM63 40C63 36.6863 60.3137 34 57 34V36C59.2091 36 61 37.7909 61 40H63ZM57 46C60.3137 46 63 43.3137 63 40H61C61 42.2091 59.2091 44 57 44V46ZM42 46H57V44H42V46ZM42 44H30V46H42V44ZM25 46H30V44H25V46ZM5 46H25V44H5V46ZM-1 40C-1 43.3137 1.68629 46 5 46V44C2.79086 44 1 42.2091 1 40H-1ZM-1 21V40H1V21H-1ZM46 32C46 34.2091 47.7909 36 50 36V34C48.8954 34 48 33.1046 48 32H46ZM29 22C29 25.3137 31.6863 28 35 28V26C32.7909 26 31 24.2091 31 22H29Z" fill="white" mask="url(#path-1-inside-1_1388_1669)"/>
<rect x="64.5" y="27.5" width="19" height="17" rx="4.5" stroke="#F8FAF8"/>
<mask id="path-4-inside-2_1388_1669" fill="white">
<path fill-rule="evenodd" clip-rule="evenodd" d="M5 0C2.23858 0 0 2.23858 0 5V9C0 11.7614 2.23858 14 5 14H27C29.7614 14 32 16.2386 32 19V20C32 22.7614 34.2386 25 37 25H40C42.7614 25 45 22.7614 45 20V9V7V5C45 2.23858 42.7614 0 40 0H5Z"/>
</mask>
<path d="M1 5C1 2.79086 2.79086 1 5 1V-1C1.68629 -1 -1 1.68629 -1 5H1ZM1 9V5H-1V9H1ZM5 13C2.79086 13 1 11.2091 1 9H-1C-1 12.3137 1.68629 15 5 15V13ZM27 13H5V15H27V13ZM33 20V19H31V20H33ZM37 24C34.7909 24 33 22.2091 33 20H31C31 23.3137 33.6863 26 37 26V24ZM40 24H37V26H40V24ZM44 20C44 22.2091 42.2091 24 40 24V26C43.3137 26 46 23.3137 46 20H44ZM44 9V20H46V9H44ZM44 7V9H46V7H44ZM44 5V7H46V5H44ZM40 1C42.2091 1 44 2.79086 44 5H46C46 1.68629 43.3137 -1 40 -1V1ZM5 1H40V-1H5V1ZM27 15C29.2091 15 31 16.7909 31 19H33C33 15.6863 30.3137 13 27 13V15Z" fill="#F8FAF8" mask="url(#path-4-inside-2_1388_1669)"/>
<mask id="path-6-inside-3_1388_1669" fill="white">
<path fill-rule="evenodd" clip-rule="evenodd" d="M51.5 0C49.0147 0 47 2.01472 47 4.5C47 6.98528 49.0147 9 51.5 9H60C62.7614 9 65 11.2386 65 14V20C65 22.7614 67.2386 25 70 25H79C81.7614 25 84 22.7614 84 20V7C84 6.97779 83.9999 6.95561 83.9996 6.93346C83.9891 6.12724 84 5.30629 84 4.5C84 2.01472 81.9853 0 79.5 0H51.5Z"/>
</mask>
<path d="M83.9996 6.93346L82.9997 6.9465L83.9996 6.93346ZM48 4.5C48 2.567 49.567 1 51.5 1V-1C48.4624 -1 46 1.46243 46 4.5H48ZM51.5 8C49.567 8 48 6.433 48 4.5H46C46 7.53757 48.4624 10 51.5 10V8ZM60 8H51.5V10H60V8ZM66 20V14H64V20H66ZM70 24C67.7909 24 66 22.2091 66 20H64C64 23.3137 66.6863 26 70 26V24ZM79 24H70V26H79V24ZM83 20C83 22.2091 81.2091 24 79 24V26C82.3137 26 85 23.3137 85 20H83ZM83 7V20H85V7H83ZM82.9997 6.9465C82.9999 6.9643 83 6.98213 83 7H85C85 6.97344 84.9998 6.94691 84.9995 6.92042L82.9997 6.9465ZM79.5 1C81.433 1 83 2.567 83 4.5H85C85 1.46243 82.5376 -1 79.5 -1V1ZM51.5 1H79.5V-1H51.5V1ZM84.9995 6.92042C84.9891 6.12164 85 5.32556 85 4.5H83C83 5.28702 82.989 6.13284 82.9997 6.9465L84.9995 6.92042ZM60 10C62.2091 10 64 11.7909 64 14H66C66 10.6863 63.3137 8 60 8V10Z" fill="#F8FAF8" mask="url(#path-6-inside-3_1388_1669)"/>
<mask id="path-8-inside-4_1388_1669" fill="white">
<path d="M48 16C48 13.2386 50.2386 11 53 11H58C60.7614 11 63 13.2386 63 16V28C63 30.7614 60.7614 33 58 33H53C50.2386 33 48 30.7614 48 28V16Z"/>
</mask>
<path d="M49 16C49 13.7909 50.7909 12 53 12V10C49.6863 10 47 12.6863 47 16H49ZM53 12H58V10H53V12ZM58 12C60.2091 12 62 13.7909 62 16H64C64 12.6863 61.3137 10 58 10V12ZM62 16V28H64V16H62ZM62 28C62 30.2091 60.2091 32 58 32V34C61.3137 34 64 31.3137 64 28H62ZM58 32H53V34H58V32ZM53 32C50.7909 32 49 30.2091 49 28H47C47 31.3137 49.6863 34 53 34V32ZM49 28V16H47V28H49Z" fill="#F8FAF8" mask="url(#path-8-inside-4_1388_1669)"/>
</svg>
