<svg width="84" height="45" viewBox="0 0 84 45" fill="none" xmlns="http://www.w3.org/2000/svg">
<g clip-path="url(#clip0_1447_28)">
<mask id="path-1-inside-1_1447_28" fill="white">
<path fill-rule="evenodd" clip-rule="evenodd" d="M59 16C56.2386 16 54 18.2386 54 21V23C54 25.7614 51.7614 28 49 28H5C2.23858 28 0 30.2386 0 33V40C0 42.7614 2.23858 45 5 45H59H79C81.7614 45 84 42.7614 84 40V33V21C84 18.2386 81.7614 16 79 16H59Z"/>
</mask>
<path d="M55 21C55 18.7909 56.7909 17 59 17V15C55.6863 15 53 17.6863 53 21H55ZM55 23V21H53V23H55ZM5 29H49V27H5V29ZM1 33C1 30.7909 2.79086 29 5 29V27C1.68629 27 -1 29.6863 -1 33H1ZM1 40V33H-1V40H1ZM5 44C2.79086 44 1 42.2091 1 40H-1C-1 43.3137 1.68629 46 5 46V44ZM59 44H5V46H59V44ZM79 44H59V46H79V44ZM83 40C83 42.2091 81.2091 44 79 44V46C82.3137 46 85 43.3137 85 40H83ZM83 33V40H85V33H83ZM83 21V33H85V21H83ZM79 17C81.2091 17 83 18.7909 83 21H85C85 17.6863 82.3137 15 79 15V17ZM59 17H79V15H59V17ZM53 23C53 25.2091 51.2091 27 49 27V29C52.3137 29 55 26.3137 55 23H53Z" fill="white" mask="url(#path-1-inside-1_1447_28)"/>
<mask id="path-3-inside-2_1447_28" fill="white">
<path fill-rule="evenodd" clip-rule="evenodd" d="M47 26C49.7614 26 52 23.7614 52 21L52 18.4815C52 15.7201 54.2386 13.4815 57 13.4815L79 13.4815C81.7614 13.4815 84 11.2429 84 8.48148L84 5.00001C84 2.23859 81.7614 7.43369e-06 79 7.19228e-06L47 4.39475e-06L38 3.60795e-06C35.2386 3.36654e-06 33 2.23858 33 5L33 8.48148L33 21C33 23.7614 35.2386 26 38 26L47 26Z"/>
</mask>
<path d="M33 8.48148L32 8.48148L33 8.48148ZM33 21L34 21L33 21ZM51 21C51 23.2091 49.2091 25 47 25L47 27C50.3137 27 53 24.3137 53 21L51 21ZM51 18.4815L51 21L53 21L53 18.4815L51 18.4815ZM79 12.4815L57 12.4815L57 14.4815L79 14.4815L79 12.4815ZM83 8.48148C83 10.6906 81.2091 12.4815 79 12.4815L79 14.4815C82.3137 14.4815 85 11.7952 85 8.48148L83 8.48148ZM83 5.00001L83 8.48148L85 8.48148L85 5.00001L83 5.00001ZM79 1.00001C81.2091 1.00001 83 2.79087 83 5.00001L85 5.00001C85 1.6863 82.3137 -0.999993 79 -0.999993L79 1.00001ZM47 1L79 1.00001L79 -0.999993L47 -0.999996L47 1ZM38 1L47 1L47 -0.999996L38 -0.999996L38 1ZM34 5C34 2.79086 35.7909 1 38 1L38 -0.999996C34.6863 -0.999997 32 1.68629 32 5L34 5ZM34 8.48148L34 5L32 5L32 8.48148L34 8.48148ZM34 21L34 8.48148L32 8.48148L32 21L34 21ZM38 25C35.7909 25 34 23.2091 34 21L32 21C32 24.3137 34.6863 27 38 27L38 25ZM47 25L38 25L38 27L47 27L47 25ZM53 18.4815C53 16.2723 54.7909 14.4815 57 14.4815L57 12.4815C53.6863 12.4815 51 15.1678 51 18.4815L53 18.4815Z" fill="white" mask="url(#path-3-inside-2_1447_28)"/>
<rect x="0.5" y="0.5" width="10" height="17" rx="4.5" stroke="#F8FAF8"/>
<rect x="0.5" y="20.5" width="10" height="5" rx="2.5" stroke="#F8FAF8"/>
<rect x="14.5" y="0.5" width="15" height="25" rx="4.5" stroke="#F8FAF8"/>
</g>
<defs>
<clipPath id="clip0_1447_28">
<rect width="84" height="45" fill="white"/>
</clipPath>
</defs>
</svg>
